<svg width="80" height="80" viewBox="0 0 80 80" fill="none" xmlns="http://www.w3.org/2000/svg">
<path d="M36.6698 33.334H43.3365V50.0007H36.6698V33.334ZM36.6665 53.334H43.3332V60.0007H36.6665V53.334Z" fill="#FF5403"/>
<path d="M45.8935 14.0009C44.7335 11.8176 42.4735 10.4609 40.0002 10.4609C37.5268 10.4609 35.2668 11.8176 34.1068 14.0043L9.64682 60.2143C9.10405 61.229 8.83518 62.3678 8.86675 63.5181C8.89831 64.6685 9.22922 65.7908 9.82682 66.7743C10.4158 67.7622 11.2523 68.5794 12.2537 69.1453C13.255 69.7112 14.3866 70.0061 15.5368 70.0009H64.4635C66.8235 70.0009 68.9602 68.7943 70.1768 66.7743C70.7735 65.7904 71.1038 64.6683 71.1354 63.5181C71.1669 62.3679 70.8986 61.2293 70.3568 60.2143L45.8935 14.0009ZM15.5368 63.3343L40.0002 17.1243L64.4802 63.3343H15.5368Z" fill="#FF5403"/>
</svg>
