<svg width="32" height="32" viewBox="0 0 32 32" fill="none" xmlns="http://www.w3.org/2000/svg">
<path d="M25.143 12.5703H6.85725C5.59488 12.5703 4.57153 13.5937 4.57153 14.856V28.5703C4.57153 29.8327 5.59488 30.856 6.85725 30.856H25.143C26.4053 30.856 27.4287 29.8327 27.4287 28.5703V14.856C27.4287 13.5937 26.4053 12.5703 25.143 12.5703Z" stroke="#B2B2B2" stroke-width="1.14286" stroke-linecap="round" stroke-linejoin="round"/>
<path d="M24 12.5712V9.14258C24 7.02085 23.1571 4.98601 21.6569 3.48572C20.1566 1.98543 18.1217 1.14258 16 1.14258C13.8783 1.14258 11.8434 1.98543 10.3431 3.48572C8.84286 4.98601 8 7.02085 8 9.14258V12.5712" stroke="#B2B2B2" stroke-width="1.14286" stroke-linecap="round" stroke-linejoin="round"/>
<path d="M16 22.856C16.6312 22.856 17.1429 22.3444 17.1429 21.7132C17.1429 21.082 16.6312 20.5703 16 20.5703C15.3689 20.5703 14.8572 21.082 14.8572 21.7132C14.8572 22.3444 15.3689 22.856 16 22.856Z" stroke="#B2B2B2" stroke-width="1.14286" stroke-linecap="round" stroke-linejoin="round"/>
</svg>
