<svg width="80" height="80" viewBox="0 0 80 80" fill="none" xmlns="http://www.w3.org/2000/svg">
<path fill-rule="evenodd" clip-rule="evenodd" d="M39.9961 80.002C18.0913 80.002 -0.00390625 61.9067 -0.00390625 40.002C-0.00390625 18.0972 18.0606 0.00195312 39.9654 0.00195312C61.8701 0.00195312 79.9961 18.0972 79.9961 40.002C79.9961 61.9067 61.9009 80.002 39.9961 80.002ZM35.0817 60.0942C36.2185 60.0942 37.2016 59.5719 37.9389 58.4352L58.584 26.085C59.0449 25.4091 59.4443 24.5796 59.4443 23.8423C59.4443 22.214 58.0003 21.2002 56.4949 21.2002C55.604 21.2002 54.7131 21.7225 54.0372 22.767L34.9281 53.151L24.7592 40.4014C23.9604 39.3876 23.1309 39.0189 22.1478 39.0189C20.6424 39.0189 19.3828 40.2171 19.3828 41.8454C19.3828 42.6134 19.69 43.4429 20.2123 44.0881L32.071 58.4659C33.0234 59.6334 33.945 60.0942 35.0817 60.0942Z" fill="#1FAF38"/>
</svg>
